<svg xmlns="http://www.w3.org/2000/svg" width="180" height="30" viewBox="0 0 180 30"><path d="M40,13.6a1.25,1.25,0,0,0-.1-.53,1,1,0,0,0-.26-.38,1.11,1.11,0,0,0-.38-.22,1.51,1.51,0,0,0-.48-.08,1.61,1.61,0,0,0-.44.06,2.09,2.09,0,0,0-.41.17,2,2,0,0,0-.39.26,1.78,1.78,0,0,0-.35.32v-.81a2.23,2.23,0,0,1,.71-.48,2.77,2.77,0,0,1,1-.16,2.27,2.27,0,0,1,.75.12,1.77,1.77,0,0,1,.6.34,1.66,1.66,0,0,1,.41.56,2.07,2.07,0,0,1,.14.77,2.6,2.6,0,0,1-.09.71,2.17,2.17,0,0,1-.27.6,3.27,3.27,0,0,1-.46.55,8,8,0,0,1-.66.52l-.77.57a3.58,3.58,0,0,0-.48.45,1.19,1.19,0,0,0-.25.41,1.33,1.33,0,0,0-.07.47H41v.68h-4.1v-.33a2.86,2.86,0,0,1,.09-.75,1.76,1.76,0,0,1,.31-.61,3.3,3.3,0,0,1,.55-.59c.23-.19.52-.41.85-.65a5.65,5.65,0,0,0,.6-.5,2,2,0,0,0,.39-.47,2.05,2.05,0,0,0,.22-.48A2.12,2.12,0,0,0,40,13.6Z" fill="#8f8f8f"/><path d="M46.27,15.15a6.55,6.55,0,0,1-.15,1.48,3.5,3.5,0,0,1-.44,1.09,2,2,0,0,1-.7.67,1.92,1.92,0,0,1-.94.23,1.86,1.86,0,0,1-.89-.22,1.92,1.92,0,0,1-.66-.64,3.18,3.18,0,0,1-.41-1,6.57,6.57,0,0,1-.14-1.4,7,7,0,0,1,.15-1.54,3.49,3.49,0,0,1,.43-1.12,1.89,1.89,0,0,1,.7-.68,2,2,0,0,1,1-.23C45.57,11.75,46.27,12.89,46.27,15.15Zm-.78.08c0-1.89-.45-2.84-1.35-2.84s-1.42,1-1.42,2.89S43.19,18,44.12,18,45.49,17.06,45.49,15.23Z" fill="#8f8f8f"/><path d="M50.23,13.6a1.44,1.44,0,0,0-.09-.53,1,1,0,0,0-.26-.38,1.07,1.07,0,0,0-.39-.22,1.51,1.51,0,0,0-.48-.08,1.54,1.54,0,0,0-.43.06,1.94,1.94,0,0,0-.42.17,2.94,2.94,0,0,0-.39.26,2.6,2.6,0,0,0-.35.32v-.81a2.27,2.27,0,0,1,.72-.48,2.67,2.67,0,0,1,1-.16,2.33,2.33,0,0,1,.76.12,1.77,1.77,0,0,1,.6.34,1.63,1.63,0,0,1,.4.56,1.89,1.89,0,0,1,.15.77,2.6,2.6,0,0,1-.09.71,1.93,1.93,0,0,1-.28.6,2.86,2.86,0,0,1-.46.55,6.42,6.42,0,0,1-.65.52l-.77.57a3.58,3.58,0,0,0-.48.45,1.06,1.06,0,0,0-.25.41,1.32,1.32,0,0,0-.08.47h3.31v.68h-4.1v-.33a2.48,2.48,0,0,1,.1-.75,1.93,1.93,0,0,1,.3-.61,3.38,3.38,0,0,1,.56-.59c.23-.19.51-.41.84-.65a5.86,5.86,0,0,0,.61-.5A2.7,2.7,0,0,0,50,14.6a1.67,1.67,0,0,0,.21-.48A2.12,2.12,0,0,0,50.23,13.6Z" fill="#8f8f8f"/><path d="M56.49,15.15a6.55,6.55,0,0,1-.15,1.48,3.5,3.5,0,0,1-.43,1.09,1.87,1.87,0,0,1-1.64.9,1.83,1.83,0,0,1-.89-.22,1.76,1.76,0,0,1-.66-.64,3.18,3.18,0,0,1-.41-1,6.57,6.57,0,0,1-.14-1.4,7.78,7.78,0,0,1,.14-1.54,3.74,3.74,0,0,1,.43-1.12,2,2,0,0,1,.7-.68,2,2,0,0,1,1-.23C55.8,11.75,56.49,12.89,56.49,15.15Zm-.77.08c0-1.89-.45-2.84-1.35-2.84S53,13.36,53,15.28,53.41,18,54.34,18,55.72,17.06,55.72,15.23Z" fill="#8f8f8f"/><path d="M64.87,18.22a3.87,3.87,0,0,1-1.83.39,3,3,0,0,1-2.27-.91,3.35,3.35,0,0,1-.85-2.39,3.53,3.53,0,0,1,1-2.58,3.24,3.24,0,0,1,2.43-1,3.9,3.9,0,0,1,1.56.27v.83a3.21,3.21,0,0,0-1.57-.4,2.44,2.44,0,0,0-1.86.77,2.89,2.89,0,0,0-.71,2,2.7,2.7,0,0,0,.67,1.93,2.25,2.25,0,0,0,1.74.72,3.23,3.23,0,0,0,1.73-.44Z" fill="#8f8f8f"/><path d="M70,18.5H69.2v-.75h0a1.55,1.55,0,0,1-1.46.86c-1.13,0-1.7-.67-1.7-2V13.76h.76v2.71q0,1.5,1.14,1.5a1.15,1.15,0,0,0,.92-.41,1.56,1.56,0,0,0,.36-1.07V13.76H70Z" fill="#8f8f8f"/><path d="M71.2,18.33v-.81a2.29,2.29,0,0,0,1.37.45c.67,0,1-.22,1-.66a.53.53,0,0,0-.09-.32.75.75,0,0,0-.23-.24,1.56,1.56,0,0,0-.34-.18l-.42-.17c-.21-.08-.4-.17-.56-.25a1.79,1.79,0,0,1-.4-.29,1.1,1.1,0,0,1-.32-.84,1.15,1.15,0,0,1,.15-.59,1.4,1.4,0,0,1,.41-.43,1.91,1.91,0,0,1,.58-.26,2.59,2.59,0,0,1,.68-.09,2.73,2.73,0,0,1,1.1.21v.77a2.13,2.13,0,0,0-1.2-.34,1.19,1.19,0,0,0-.39.05,1.11,1.11,0,0,0-.29.13.63.63,0,0,0-.19.21A.55.55,0,0,0,72,15a.62.62,0,0,0,.07.31.77.77,0,0,0,.19.22,1.91,1.91,0,0,0,.32.17l.42.18.57.24a2.22,2.22,0,0,1,.42.29,1.13,1.13,0,0,1,.37.86,1.15,1.15,0,0,1-.16.62,1.4,1.4,0,0,1-.41.43,2.16,2.16,0,0,1-.6.25,2.71,2.71,0,0,1-.71.08A2.67,2.67,0,0,1,71.2,18.33Z" fill="#8f8f8f"/><path d="M77.71,18.46a1.41,1.41,0,0,1-.7.14c-.84,0-1.25-.46-1.25-1.38V14.41h-.82v-.65h.82V12.6l.76-.24v1.4h1.19v.65H76.52v2.67a1.08,1.08,0,0,0,.16.68.65.65,0,0,0,.54.21.8.8,0,0,0,.49-.16Z" fill="#8f8f8f"/><path d="M80.71,18.61A2.21,2.21,0,0,1,79,18a2.45,2.45,0,0,1-.63-1.76,2.56,2.56,0,0,1,.66-1.87,2.32,2.32,0,0,1,1.76-.67,2.15,2.15,0,0,1,1.66.65,2.63,2.63,0,0,1,.59,1.81,2.53,2.53,0,0,1-.64,1.82A2.23,2.23,0,0,1,80.71,18.61Zm.06-4.32a1.42,1.42,0,0,0-1.16.5,2,2,0,0,0-.43,1.37,2,2,0,0,0,.43,1.33,1.48,1.48,0,0,0,1.16.48,1.38,1.38,0,0,0,1.13-.47,2.1,2.1,0,0,0,.39-1.36,2.13,2.13,0,0,0-.39-1.37A1.39,1.39,0,0,0,80.77,14.29Z" fill="#8f8f8f"/><path d="M91,18.5h-.76V15.78A2.06,2.06,0,0,0,90,14.64a1,1,0,0,0-.82-.35,1,1,0,0,0-.83.44A1.75,1.75,0,0,0,88,15.8v2.7h-.76V15.69c0-.94-.36-1.4-1.08-1.4a1,1,0,0,0-.82.42,1.7,1.7,0,0,0-.32,1.09v2.7h-.76V13.76h.76v.75h0a1.63,1.63,0,0,1,1.48-.86,1.36,1.36,0,0,1,.84.27,1.39,1.39,0,0,1,.5.71,1.7,1.7,0,0,1,1.57-1c1,0,1.57.64,1.57,1.93Z" fill="#8f8f8f"/><path d="M96.27,16.32H92.92a1.74,1.74,0,0,0,.42,1.22,1.48,1.48,0,0,0,1.12.43,2.35,2.35,0,0,0,1.48-.52v.71a2.79,2.79,0,0,1-1.66.45A2,2,0,0,1,92.7,18a2.66,2.66,0,0,1-.57-1.82,2.57,2.57,0,0,1,.63-1.8,2,2,0,0,1,1.56-.7,1.79,1.79,0,0,1,1.44.6,2.51,2.51,0,0,1,.51,1.67Zm-.78-.64a1.55,1.55,0,0,0-.32-1,1.1,1.1,0,0,0-.87-.36,1.24,1.24,0,0,0-.91.38,1.76,1.76,0,0,0-.46,1Z" fill="#8f8f8f"/><path d="M99.89,14.53a1,1,0,0,0-.58-.15,1,1,0,0,0-.81.45,2.14,2.14,0,0,0-.33,1.26V18.5h-.76V13.76h.76v1h0a1.63,1.63,0,0,1,.5-.78,1.1,1.1,0,0,1,.74-.28,1.38,1.38,0,0,1,.46.06Z" fill="#8f8f8f"/><path d="M106.93,18.5h-3.52V11.86h3.37v.71h-2.59v2.2h2.4v.7h-2.4V17.8h2.74Z" fill="#8f8f8f"/><path d="M111.57,13.76,110,16.16l1.56,2.34h-.88L109.73,17l-.21-.37h0s-.09.15-.22.37l-1,1.53h-.87l1.62-2.32-1.55-2.42h.88l.92,1.62.2.37h0l1.18-2Z" fill="#8f8f8f"/><path d="M113.24,17.82h0v2.86h-.76V13.76h.76v.83h0a1.79,1.79,0,0,1,1.64-.94,1.72,1.72,0,0,1,1.43.64,2.63,2.63,0,0,1,.51,1.7,2.92,2.92,0,0,1-.58,1.91,1.9,1.9,0,0,1-1.58.71A1.58,1.58,0,0,1,113.24,17.82Zm0-1.92v.67a1.41,1.41,0,0,0,.38,1,1.37,1.37,0,0,0,2.05-.11,2.38,2.38,0,0,0,.4-1.47,1.93,1.93,0,0,0-.37-1.24,1.2,1.2,0,0,0-1-.45,1.35,1.35,0,0,0-1.07.46A1.73,1.73,0,0,0,113.22,15.9Z" fill="#8f8f8f"/><path d="M121.85,16.32H118.5a1.7,1.7,0,0,0,.43,1.22,1.45,1.45,0,0,0,1.12.43,2.34,2.34,0,0,0,1.47-.52v.71a2.78,2.78,0,0,1-1.65.45,2,2,0,0,1-1.58-.64,2.62,2.62,0,0,1-.58-1.82,2.57,2.57,0,0,1,.63-1.8,2,2,0,0,1,1.56-.7,1.79,1.79,0,0,1,1.44.6,2.51,2.51,0,0,1,.51,1.67Zm-.78-.64a1.55,1.55,0,0,0-.32-1,1.08,1.08,0,0,0-.87-.36,1.25,1.25,0,0,0-.91.38,1.76,1.76,0,0,0-.46,1Z" fill="#8f8f8f"/><path d="M125.47,14.53a.92.92,0,0,0-.57-.15,1,1,0,0,0-.82.45,2.22,2.22,0,0,0-.32,1.26V18.5H123V13.76h.76v1h0a1.54,1.54,0,0,1,.49-.78,1.11,1.11,0,0,1,.75-.28,1.32,1.32,0,0,1,.45.06Z" fill="#8f8f8f"/><path d="M126.68,12.56a.48.48,0,0,1-.34-.14.47.47,0,0,1-.15-.35.5.5,0,0,1,.49-.5.52.52,0,0,1,.36.14.51.51,0,0,1,.14.36.48.48,0,0,1-.14.34A.49.49,0,0,1,126.68,12.56Zm.37,5.94h-.76V13.76h.76Z" fill="#8f8f8f"/><path d="M132.4,16.32h-3.35a1.8,1.8,0,0,0,.43,1.22,1.46,1.46,0,0,0,1.12.43,2.3,2.3,0,0,0,1.47-.52v.71a2.74,2.74,0,0,1-1.65.45,2,2,0,0,1-1.58-.64,2.66,2.66,0,0,1-.57-1.82,2.61,2.61,0,0,1,.62-1.8,2,2,0,0,1,1.56-.7,1.79,1.79,0,0,1,1.44.6,2.51,2.51,0,0,1,.51,1.67Zm-.78-.64a1.55,1.55,0,0,0-.31-1,1.1,1.1,0,0,0-.87-.36,1.24,1.24,0,0,0-.91.38,1.77,1.77,0,0,0-.47,1Z" fill="#8f8f8f"/><path d="M137.49,18.5h-.76V15.8c0-1-.37-1.51-1.1-1.51a1.2,1.2,0,0,0-.95.43,1.61,1.61,0,0,0-.37,1.08v2.7h-.76V13.76h.76v.79h0a1.72,1.72,0,0,1,1.56-.9,1.48,1.48,0,0,1,1.19.5,2.28,2.28,0,0,1,.41,1.45Z" fill="#8f8f8f"/><path d="M142.15,18.29a2.56,2.56,0,0,1-1.3.32,2.13,2.13,0,0,1-1.63-.66,2.37,2.37,0,0,1-.63-1.71,2.61,2.61,0,0,1,.68-1.88,2.34,2.34,0,0,1,1.79-.71,2.54,2.54,0,0,1,1.1.23v.78a1.91,1.91,0,0,0-1.13-.37,1.52,1.52,0,0,0-1.19.52,2,2,0,0,0-.47,1.37,1.89,1.89,0,0,0,.44,1.31A1.5,1.5,0,0,0,141,18a1.86,1.86,0,0,0,1.17-.41Z" fill="#8f8f8f"/><path d="M147.11,16.32h-3.35a1.8,1.8,0,0,0,.43,1.22,1.45,1.45,0,0,0,1.12.43,2.34,2.34,0,0,0,1.47-.52v.71a2.76,2.76,0,0,1-1.65.45,2,2,0,0,1-1.58-.64,2.66,2.66,0,0,1-.57-1.82,2.56,2.56,0,0,1,.62-1.8,2,2,0,0,1,1.56-.7,1.79,1.79,0,0,1,1.44.6,2.51,2.51,0,0,1,.51,1.67Zm-.78-.64a1.6,1.6,0,0,0-.31-1,1.1,1.1,0,0,0-.87-.36,1.24,1.24,0,0,0-.91.38,1.77,1.77,0,0,0-.47,1Z" fill="#8f8f8f"/><path d="M156.1,18.5h-.86l-.71-1.86h-2.81l-.66,1.86h-.87l2.55-6.64h.8Zm-1.82-2.56-1-2.83a1.93,1.93,0,0,1-.1-.44h0a2.33,2.33,0,0,1-.11.44l-1,2.83Z" fill="#8f8f8f"/><path d="M163,13.76l-1.42,4.74h-.79l-1-3.39a2.7,2.7,0,0,1-.07-.44h0a2,2,0,0,1-.1.43l-1.06,3.4h-.76l-1.43-4.74h.79l1,3.57a2,2,0,0,1,.06.42h0a2.47,2.47,0,0,1,.08-.43l1.09-3.56h.7l1,3.58a3,3,0,0,1,.07.42h0a1.46,1.46,0,0,1,.08-.42l1-3.58Z" fill="#8f8f8f"/><path d="M167.22,18.5h-.76v-.74h0a1.59,1.59,0,0,1-1.46.85,1.54,1.54,0,0,1-1.11-.37,1.29,1.29,0,0,1-.4-1c0-.88.52-1.4,1.56-1.54l1.42-.2c0-.81-.32-1.21-1-1.21a2.34,2.34,0,0,0-1.55.58v-.78a3,3,0,0,1,1.61-.44c1.12,0,1.67.59,1.67,1.77Zm-.76-2.4-1.14.16a2,2,0,0,0-.8.26.79.79,0,0,0-.26.67.71.71,0,0,0,.24.56,1,1,0,0,0,.66.22,1.24,1.24,0,0,0,.94-.39,1.44,1.44,0,0,0,.36-1Z" fill="#8f8f8f"/><path d="M171.13,14.53a1,1,0,0,0-.58-.15,1,1,0,0,0-.81.45,2.14,2.14,0,0,0-.33,1.26V18.5h-.75V13.76h.75v1h0a1.63,1.63,0,0,1,.5-.78,1.1,1.1,0,0,1,.74-.28,1.38,1.38,0,0,1,.46.06Z" fill="#8f8f8f"/><path d="M176,18.5h-.76v-.8h0a1.74,1.74,0,0,1-1.63.91,1.79,1.79,0,0,1-1.43-.63,2.68,2.68,0,0,1-.53-1.74,2.86,2.86,0,0,1,.59-1.88,2,2,0,0,1,1.58-.71,1.52,1.52,0,0,1,1.42.77h0V11.48H176Zm-.76-2.14v-.7a1.36,1.36,0,0,0-.38-1,1.25,1.25,0,0,0-1-.4,1.32,1.32,0,0,0-1.1.51,2.27,2.27,0,0,0-.39,1.41,2,2,0,0,0,.38,1.29,1.23,1.23,0,0,0,1,.47,1.29,1.29,0,0,0,1-.45A1.71,1.71,0,0,0,175.24,16.36Z" fill="#8f8f8f"/><path d="M40,25a1.25,1.25,0,0,0-.1-.53,1,1,0,0,0-.26-.38,1.11,1.11,0,0,0-.38-.22,1.51,1.51,0,0,0-.48-.07,1.61,1.61,0,0,0-.44.06,2.11,2.11,0,0,0-.8.42,2.2,2.2,0,0,0-.35.33v-.82a2.2,2.2,0,0,1,.71-.47,2.55,2.55,0,0,1,1-.17,2.27,2.27,0,0,1,.75.12,1.64,1.64,0,0,1,.6.35,1.57,1.57,0,0,1,.41.56,2,2,0,0,1,.14.76,2.6,2.6,0,0,1-.09.71,2,2,0,0,1-.27.6,3.27,3.27,0,0,1-.46.55,6.33,6.33,0,0,1-.66.52l-.77.57a3.58,3.58,0,0,0-.48.45,1.19,1.19,0,0,0-.25.41,1.37,1.37,0,0,0-.07.47H41v.68h-4.1v-.32a2.75,2.75,0,0,1,.09-.75,1.72,1.72,0,0,1,.31-.62,3,3,0,0,1,.55-.58c.23-.2.52-.42.85-.66a4.66,4.66,0,0,0,.6-.5,1.84,1.84,0,0,0,.39-.47A2.05,2.05,0,0,0,40,25.5,2.12,2.12,0,0,0,40,25Z" fill="#8f8f8f"/><path d="M46.27,26.54A6.52,6.52,0,0,1,46.12,28a3.5,3.5,0,0,1-.44,1.09,2,2,0,0,1-.7.67A1.92,1.92,0,0,1,44,30a1.75,1.75,0,0,1-.89-.22,1.92,1.92,0,0,1-.66-.64,3.18,3.18,0,0,1-.41-1,6.5,6.5,0,0,1-.14-1.4,7.11,7.11,0,0,1,.15-1.54A3.59,3.59,0,0,1,42.52,24a1.89,1.89,0,0,1,.7-.68,2,2,0,0,1,1-.23C45.57,23.13,46.27,24.27,46.27,26.54Zm-.78.07c0-1.89-.45-2.83-1.35-2.83s-1.42,1-1.42,2.88.47,2.69,1.4,2.69S45.49,28.44,45.49,26.61Z" fill="#8f8f8f"/><path d="M50,29.88h-.76V24.15a2.74,2.74,0,0,1-.26.2,3.2,3.2,0,0,1-.38.22,3,3,0,0,1-.44.21,2.24,2.24,0,0,1-.46.15v-.77a3,3,0,0,0,.53-.18c.19-.08.37-.17.56-.27s.35-.2.51-.3a4,4,0,0,0,.41-.31H50Z" fill="#8f8f8f"/><path d="M56.42,26.17a6.69,6.69,0,0,1-.18,1.62,3.67,3.67,0,0,1-.53,1.2,2.26,2.26,0,0,1-.85.75,2.46,2.46,0,0,1-1.14.26,2.78,2.78,0,0,1-1.15-.23V29a2.3,2.3,0,0,0,1.17.31,1.79,1.79,0,0,0,.81-.18,1.92,1.92,0,0,0,.6-.54,2.62,2.62,0,0,0,.37-.88,4.71,4.71,0,0,0,.13-1.19h0a1.5,1.5,0,0,1-1.48.86,2,2,0,0,1-.78-.15,1.77,1.77,0,0,1-.62-.43,2,2,0,0,1-.4-.65,2.25,2.25,0,0,1-.14-.84,2.36,2.36,0,0,1,.16-.9,2,2,0,0,1,.44-.7,2,2,0,0,1,.68-.46,2.34,2.34,0,0,1,.85-.16,2,2,0,0,1,.89.2,1.83,1.83,0,0,1,.65.59,3.06,3.06,0,0,1,.4.95A5.63,5.63,0,0,1,56.42,26.17Zm-.82-.69a2.17,2.17,0,0,0-.1-.69,2,2,0,0,0-.27-.54,1.27,1.27,0,0,0-.42-.35,1.21,1.21,0,0,0-.53-.12,1.19,1.19,0,0,0-.51.1,1.27,1.27,0,0,0-.41.31,1.47,1.47,0,0,0-.28.47,1.87,1.87,0,0,0-.1.59,2.08,2.08,0,0,0,.1.63,1.29,1.29,0,0,0,.27.47,1.22,1.22,0,0,0,.42.29,1.42,1.42,0,0,0,.55.1,1.21,1.21,0,0,0,.5-.1,1.25,1.25,0,0,0,.41-.26,1.56,1.56,0,0,0,.27-.4A1.18,1.18,0,0,0,55.6,25.48Z" fill="#8f8f8f"/><path d="M61.13,27.37v2.51h-.78V23.24h1.83a2.43,2.43,0,0,1,1.65.52,1.87,1.87,0,0,1,.58,1.47,2,2,0,0,1-.65,1.54,2.48,2.48,0,0,1-1.75.6Zm0-3.42v2.72H62a1.78,1.78,0,0,0,1.22-.37,1.27,1.27,0,0,0,.43-1c0-.87-.52-1.31-1.56-1.31Z" fill="#8f8f8f"/><path d="M69,29.88H68.2v-.74h0a1.6,1.6,0,0,1-1.46.86,1.57,1.57,0,0,1-1.11-.38,1.29,1.29,0,0,1-.4-1c0-.88.52-1.4,1.57-1.54l1.42-.2c0-.81-.33-1.21-1-1.21a2.34,2.34,0,0,0-1.55.58v-.77A2.94,2.94,0,0,1,67.28,25Q69,25,69,26.8Zm-.76-2.39-1.15.15a1.92,1.92,0,0,0-.79.26.77.77,0,0,0-.27.67.72.72,0,0,0,.25.57,1,1,0,0,0,.66.22,1.25,1.25,0,0,0,.93-.4,1.43,1.43,0,0,0,.37-1Z" fill="#8f8f8f"/><path d="M72.86,25.91a.92.92,0,0,0-.57-.15,1,1,0,0,0-.82.46,2.16,2.16,0,0,0-.32,1.25v2.41h-.76V25.14h.76v1h0a1.64,1.64,0,0,1,.49-.78,1.11,1.11,0,0,1,.75-.28,1.32,1.32,0,0,1,.45.06Z" fill="#8f8f8f"/><path d="M75.88,29.84a1.4,1.4,0,0,1-.7.15c-.83,0-1.25-.47-1.25-1.39V25.79h-.81v-.65h.81V24l.76-.24v1.4h1.19v.65H74.69v2.67a1.08,1.08,0,0,0,.16.68.65.65,0,0,0,.54.21.8.8,0,0,0,.49-.16Z" fill="#8f8f8f"/><path d="M80.84,29.88h-.76v-2.7c0-1-.37-1.51-1.11-1.51a1.18,1.18,0,0,0-.94.43,1.56,1.56,0,0,0-.37,1.08v2.7H76.9V25.14h.76v.79h0a1.7,1.7,0,0,1,1.55-.9,1.46,1.46,0,0,1,1.19.5A2.23,2.23,0,0,1,80.84,27Z" fill="#8f8f8f"/><path d="M86.08,27.7H82.73a1.75,1.75,0,0,0,.43,1.23,1.48,1.48,0,0,0,1.12.43,2.35,2.35,0,0,0,1.47-.53v.71A2.78,2.78,0,0,1,84.1,30a2,2,0,0,1-1.58-.65,2.62,2.62,0,0,1-.58-1.82,2.57,2.57,0,0,1,.63-1.8,2,2,0,0,1,1.56-.7,1.79,1.79,0,0,1,1.44.6,2.51,2.51,0,0,1,.51,1.67Zm-.78-.64A1.5,1.5,0,0,0,85,26a1.07,1.07,0,0,0-.87-.37,1.25,1.25,0,0,0-.91.38,1.79,1.79,0,0,0-.46,1Z" fill="#8f8f8f"/><path d="M89.7,25.91a.92.92,0,0,0-.57-.15,1,1,0,0,0-.82.46A2.09,2.09,0,0,0,88,27.47v2.41h-.76V25.14H88v1h0a1.73,1.73,0,0,1,.5-.78,1.11,1.11,0,0,1,.75-.28,1.36,1.36,0,0,1,.45.06Z" fill="#8f8f8f"/><path d="M95.1,30a2.18,2.18,0,0,1-1.67-.67,2.45,2.45,0,0,1-.63-1.76,2.59,2.59,0,0,1,.65-1.87A2.34,2.34,0,0,1,95.22,25a2.15,2.15,0,0,1,1.65.65,2.58,2.58,0,0,1,.6,1.81,2.53,2.53,0,0,1-.65,1.82A2.22,2.22,0,0,1,95.1,30Zm.06-4.33a1.46,1.46,0,0,0-1.16.5,2.06,2.06,0,0,0-.42,1.37A1.92,1.92,0,0,0,94,28.87a1.47,1.47,0,0,0,1.15.49,1.38,1.38,0,0,0,1.13-.48,2,2,0,0,0,.4-1.36,2.07,2.07,0,0,0-.4-1.37A1.38,1.38,0,0,0,95.16,25.67Z" fill="#8f8f8f"/><path d="M101,23.53a1,1,0,0,0-.5-.12c-.53,0-.8.33-.8,1v.73h1.11v.65H99.72v4.09H99V25.79h-.81v-.65H99v-.77a1.6,1.6,0,0,1,.43-1.18,1.46,1.46,0,0,1,1.07-.43,1.6,1.6,0,0,1,.55.08Z" fill="#8f8f8f"/><path d="M106.45,29.84a1.47,1.47,0,0,1-.71.15c-.83,0-1.25-.47-1.25-1.39V25.79h-.81v-.65h.81V24l.76-.24v1.4h1.2v.65h-1.2v2.67a1.08,1.08,0,0,0,.16.68.65.65,0,0,0,.54.21.85.85,0,0,0,.5-.16Z" fill="#8f8f8f"/><path d="M111.4,29.88h-.76V27.15c0-1-.37-1.48-1.11-1.48a1.17,1.17,0,0,0-.93.43,1.6,1.6,0,0,0-.38,1.1v2.68h-.76v-7h.76v3.07h0a1.71,1.71,0,0,1,1.55-.9c1.07,0,1.61.64,1.61,1.93Z" fill="#8f8f8f"/><path d="M116.64,27.7h-3.35a1.75,1.75,0,0,0,.43,1.23,1.48,1.48,0,0,0,1.12.43,2.35,2.35,0,0,0,1.47-.53v.71a2.78,2.78,0,0,1-1.65.46,2,2,0,0,1-1.58-.65,2.62,2.62,0,0,1-.58-1.82,2.57,2.57,0,0,1,.63-1.8,2,2,0,0,1,1.56-.7,1.79,1.79,0,0,1,1.44.6,2.51,2.51,0,0,1,.51,1.67Zm-.78-.64a1.5,1.5,0,0,0-.32-1,1.06,1.06,0,0,0-.87-.37,1.25,1.25,0,0,0-.91.38,1.79,1.79,0,0,0-.46,1Z" fill="#8f8f8f"/><path d="M124.8,23.24l-2.19,4.19v2.45h-.78V27.45l-2.13-4.21h.88l1.49,3s.07.18.16.41h0a3.32,3.32,0,0,1,.17-.41l1.56-3Z" fill="#8f8f8f"/><path d="M129.44,27.7h-3.35a1.79,1.79,0,0,0,.43,1.23,1.48,1.48,0,0,0,1.12.43,2.35,2.35,0,0,0,1.47-.53v.71a2.78,2.78,0,0,1-1.65.46,2,2,0,0,1-1.58-.65,2.62,2.62,0,0,1-.58-1.82,2.57,2.57,0,0,1,.63-1.8,2,2,0,0,1,1.56-.7,1.79,1.79,0,0,1,1.44.6,2.51,2.51,0,0,1,.51,1.67Zm-.78-.64a1.5,1.5,0,0,0-.32-1,1,1,0,0,0-.86-.37,1.26,1.26,0,0,0-.92.38,1.79,1.79,0,0,0-.46,1Z" fill="#8f8f8f"/><path d="M134,29.88h-.76v-.74h0a1.58,1.58,0,0,1-1.45.86,1.54,1.54,0,0,1-1.11-.38,1.29,1.29,0,0,1-.4-1c0-.88.52-1.4,1.56-1.54l1.42-.2c0-.81-.32-1.21-1-1.21a2.32,2.32,0,0,0-1.55.58v-.77a2.89,2.89,0,0,1,1.61-.45c1.11,0,1.67.59,1.67,1.77Zm-.76-2.39-1.14.15a2,2,0,0,0-.8.26.77.77,0,0,0-.27.67.76.76,0,0,0,.25.57,1,1,0,0,0,.66.22,1.22,1.22,0,0,0,.93-.4,1.39,1.39,0,0,0,.37-1Z" fill="#8f8f8f"/><path d="M137.89,25.91a1,1,0,0,0-.58-.15,1,1,0,0,0-.81.46,2.09,2.09,0,0,0-.33,1.25v2.41h-.76V25.14h.76v1h0a1.65,1.65,0,0,1,.5-.78,1.1,1.1,0,0,1,.74-.28,1.38,1.38,0,0,1,.46.06Z" fill="#8f8f8f"/><path d="M85.91,6.67a4.53,4.53,0,0,1-2.23.56,3,3,0,0,1-2.3-.92,3.34,3.34,0,0,1-.88-2.42,3.48,3.48,0,0,1,1-2.54A3.32,3.32,0,0,1,84,.36a4.13,4.13,0,0,1,1.82.36v.86a3.49,3.49,0,0,0-1.91-.51A2.37,2.37,0,0,0,82,1.84a2.77,2.77,0,0,0-.71,2,2.82,2.82,0,0,0,.66,2,2.32,2.32,0,0,0,1.8.72,2.75,2.75,0,0,0,1.35-.31V4.36H83.67V3.65h2.24Z" fill="#8f8f8f"/><path d="M89.33,7.23a2.21,2.21,0,0,1-1.68-.66A2.47,2.47,0,0,1,87,4.8a2.53,2.53,0,0,1,.66-1.86,2.33,2.33,0,0,1,1.76-.68,2.13,2.13,0,0,1,1.66.66,2.56,2.56,0,0,1,.59,1.81,2.54,2.54,0,0,1-.64,1.82A2.27,2.27,0,0,1,89.33,7.23Zm.06-4.33a1.45,1.45,0,0,0-1.16.5,2,2,0,0,0-.43,1.38,1.94,1.94,0,0,0,.43,1.33,1.48,1.48,0,0,0,1.16.48,1.41,1.41,0,0,0,1.13-.47,2.12,2.12,0,0,0,.4-1.36,2.11,2.11,0,0,0-.4-1.37A1.37,1.37,0,0,0,89.39,2.9Z" fill="#8f8f8f"/><path d="M93.67,7.12h-.76v-7h.76Z" fill="#8f8f8f"/><path d="M99.26,7.12H98.5V6.31h0a1.74,1.74,0,0,1-1.63.92,1.77,1.77,0,0,1-1.43-.63,2.62,2.62,0,0,1-.54-1.74A2.84,2.84,0,0,1,95.48,3a2,2,0,0,1,1.58-.71A1.53,1.53,0,0,1,98.48,3h0V.09h.76ZM98.5,5v-.7a1.38,1.38,0,0,0-.38-1,1.4,1.4,0,0,0-2.06.11,2.21,2.21,0,0,0-.4,1.41A2.05,2.05,0,0,0,96,6.12a1.37,1.37,0,0,0,2.06,0A1.66,1.66,0,0,0,98.5,5Z" fill="#8f8f8f"/><path d="M104.28,4.61V7.12h-.78V.48h1.82A2.44,2.44,0,0,1,107,1a1.87,1.87,0,0,1,.58,1.47A2,2,0,0,1,106.91,4a2.49,2.49,0,0,1-1.76.6Zm0-3.43V3.9h.81a1.84,1.84,0,0,0,1.23-.36,1.3,1.3,0,0,0,.43-1q0-1.32-1.56-1.32Z" fill="#8f8f8f"/><path d="M112.11,7.12h-.76V6.38h0a1.59,1.59,0,0,1-1.46.85,1.57,1.57,0,0,1-1.11-.37,1.3,1.3,0,0,1-.4-1c0-.89.52-1.4,1.57-1.55l1.42-.2c0-.8-.33-1.21-1-1.21a2.35,2.35,0,0,0-1.55.59V2.71a3,3,0,0,1,1.62-.45c1.11,0,1.67.59,1.67,1.77Zm-.76-2.4-1.15.16a1.78,1.78,0,0,0-.79.26.75.75,0,0,0-.27.66.7.7,0,0,0,.25.57.92.92,0,0,0,.66.22A1.22,1.22,0,0,0,111,6.2a1.42,1.42,0,0,0,.37-1Z" fill="#8f8f8f"/><path d="M116,3.14a1,1,0,0,0-.58-.15,1,1,0,0,0-.81.46,2.11,2.11,0,0,0-.33,1.25V7.12h-.76V2.38h.76v1h0a1.65,1.65,0,0,1,.5-.78,1.16,1.16,0,0,1,.74-.28,1.14,1.14,0,0,1,.46.07Z" fill="#8f8f8f"/><path d="M119,7.07a1.44,1.44,0,0,1-.71.15c-.83,0-1.24-.46-1.24-1.39V3h-.82V2.38h.82V1.22l.76-.25V2.38H119V3h-1.19V5.7a1.1,1.1,0,0,0,.16.68.64.64,0,0,0,.54.2.81.81,0,0,0,.49-.15Z" fill="#8f8f8f"/><path d="M124,7.12h-.76V4.41c0-1-.37-1.51-1.11-1.51a1.21,1.21,0,0,0-.94.43,1.59,1.59,0,0,0-.37,1.08V7.12h-.76V2.38h.76v.78h0a1.69,1.69,0,0,1,1.55-.9,1.43,1.43,0,0,1,1.19.51A2.2,2.2,0,0,1,124,4.22Z" fill="#8f8f8f"/><path d="M129.24,4.94h-3.35a1.77,1.77,0,0,0,.43,1.22,1.46,1.46,0,0,0,1.12.43,2.25,2.25,0,0,0,1.47-.53v.72a2.74,2.74,0,0,1-1.65.45,2,2,0,0,1-1.58-.64,2.68,2.68,0,0,1-.58-1.82A2.61,2.61,0,0,1,125.73,3a2,2,0,0,1,1.56-.7,1.79,1.79,0,0,1,1.44.61,2.51,2.51,0,0,1,.51,1.67Zm-.78-.65a1.52,1.52,0,0,0-.31-1,1.1,1.1,0,0,0-.87-.37,1.21,1.21,0,0,0-.91.39,1.74,1.74,0,0,0-.47,1Z" fill="#8f8f8f"/><path d="M132.87,3.14a1,1,0,0,0-1.39.31,2.11,2.11,0,0,0-.33,1.25V7.12h-.76V2.38h.76v1h0a1.73,1.73,0,0,1,.5-.78,1.16,1.16,0,0,1,.74-.28,1.14,1.14,0,0,1,.46.07Z" fill="#8f8f8f"/><path d="M41.47,4.65l-.33.87h0a8.08,8.08,0,0,0-.31-.86L39,.49H37.31V7.12h1.14V3c0-.25,0-.55,0-.9,0-.18,0-.32,0-.43h0a4.67,4.67,0,0,0,.17.57l2.12,4.84h.8l2.11-4.88a3,3,0,0,0,.14-.53h0c0,.49,0,.93-.06,1.19V7.12H45V.49H43.29L41.47,4.65" fill="#8f8f8f"/><polyline points="46.1 7.12 47.29 7.12 47.29 3.53 47.29 2.37 46.1 2.37 46.1 5.28 46.1 7.12" fill="#8f8f8f"/><path d="M46.71.35a.76.76,0,0,0-.51.18A.61.61,0,0,0,46,1a.6.6,0,0,0,.21.46.81.81,0,0,0,1,0A.6.6,0,0,0,47.43,1a.63.63,0,0,0-.2-.46.74.74,0,0,0-.52-.19" fill="#8f8f8f"/><path d="M51.51,2.32a3.18,3.18,0,0,0-.67-.07,3.07,3.07,0,0,0-1.45.33,2.34,2.34,0,0,0-1,.92,2.74,2.74,0,0,0-.33,1.36,2.42,2.42,0,0,0,.32,1.23,2.21,2.21,0,0,0,.89.85,2.89,2.89,0,0,0,1.3.29,3,3,0,0,0,1.44-.31h0v-1l0,0a2.23,2.23,0,0,1-.58.28,1.84,1.84,0,0,1-.57.11,1.43,1.43,0,0,1-1.53-1.54,1.61,1.61,0,0,1,.43-1.16,1.51,1.51,0,0,1,1.12-.43A2,2,0,0,1,52,3.55l0,0V2.5h0a2,2,0,0,0-.55-.17" fill="#8f8f8f"/><path d="M55.43,2.28a1.22,1.22,0,0,0-.79.27,1.45,1.45,0,0,0-.46.64h0V2.37H53V7.12h1.19V4.69a1.58,1.58,0,0,1,.3-1,.91.91,0,0,1,.77-.38,1.59,1.59,0,0,1,.36,0,1.15,1.15,0,0,1,.28.11l.05,0V2.36h0a1.41,1.41,0,0,0-.47-.07" fill="#8f8f8f"/><path d="M59.61,5.91a1.25,1.25,0,0,1-1,.4,1.3,1.3,0,0,1-1-.41,1.61,1.61,0,0,1-.37-1.14,1.68,1.68,0,0,1,.37-1.17,1.26,1.26,0,0,1,1-.41,1.28,1.28,0,0,1,1,.39A1.66,1.66,0,0,1,60,4.73a1.77,1.77,0,0,1-.34,1.18m-.94-3.66a2.78,2.78,0,0,0-2,.68A2.49,2.49,0,0,0,56,4.8a2.33,2.33,0,0,0,.7,1.77,2.6,2.6,0,0,0,1.86.66,2.69,2.69,0,0,0,1.94-.69,2.47,2.47,0,0,0,.71-1.84,2.44,2.44,0,0,0-.67-1.8,2.56,2.56,0,0,0-1.85-.65" fill="#8f8f8f"/><path d="M63.83,4.33A2.59,2.59,0,0,1,63.11,4,.5.5,0,0,1,63,3.61a.4.4,0,0,1,.18-.33.89.89,0,0,1,.52-.14,2.2,2.2,0,0,1,.61.09,2,2,0,0,1,.53.23l0,0v-1h0a3.46,3.46,0,0,0-.54-.14,3.37,3.37,0,0,0-.59-.06,2.28,2.28,0,0,0-1.4.41,1.26,1.26,0,0,0-.55,1,1.38,1.38,0,0,0,.12.59,1.17,1.17,0,0,0,.36.44,3.89,3.89,0,0,0,.73.39,4.57,4.57,0,0,1,.61.26.79.79,0,0,1,.27.21.46.46,0,0,1,.08.27c0,.32-.26.47-.78.47a2.07,2.07,0,0,1-.66-.11,2.49,2.49,0,0,1-.68-.32l-.05,0V7h0a2.88,2.88,0,0,0,.64.19,3.56,3.56,0,0,0,.68.07,2.36,2.36,0,0,0,1.48-.41,1.29,1.29,0,0,0,.55-1.08,1.18,1.18,0,0,0-.3-.81,2.53,2.53,0,0,0-1-.6" fill="#8f8f8f"/><path d="M69.28,5.91a1.27,1.27,0,0,1-1,.4,1.32,1.32,0,0,1-1-.41,1.66,1.66,0,0,1-.37-1.14,1.73,1.73,0,0,1,.37-1.17,1.28,1.28,0,0,1,1-.41,1.3,1.3,0,0,1,1,.39,1.66,1.66,0,0,1,.36,1.16,1.82,1.82,0,0,1-.34,1.18m-1-3.66a2.74,2.74,0,0,0-2,.68,2.49,2.49,0,0,0-.71,1.87,2.32,2.32,0,0,0,.69,1.77,2.6,2.6,0,0,0,1.87.66,2.65,2.65,0,0,0,1.93-.69,2.47,2.47,0,0,0,.71-1.84,2.4,2.4,0,0,0-.67-1.8,2.54,2.54,0,0,0-1.85-.65" fill="#8f8f8f"/><path d="M77.2,3.28V2.37H76V1h0l-1.14.33h0V2.37H73v-.6a.94.94,0,0,1,.2-.64.72.72,0,0,1,.55-.21,1.48,1.48,0,0,1,.53.11l0,0v-1h0A2.35,2.35,0,0,0,73.64,0a2,2,0,0,0-1,.22,1.51,1.51,0,0,0-.65.6,1.76,1.76,0,0,0-.23.89v.66H71v.91h.84V7.12H73V3.28H74.8V5.72a1.34,1.34,0,0,0,1.5,1.51,2.94,2.94,0,0,0,.51-.05,1.64,1.64,0,0,0,.38-.11h0V6.14l0,0a.91.91,0,0,1-.24.1,1.48,1.48,0,0,1-.24,0,.66.66,0,0,1-.51-.18A.89.89,0,0,1,76,5.52V3.28h1.2" fill="#8f8f8f"/><rect width="14" height="14" fill="#e64515"/><rect x="16" width="14" height="14" fill="#84b627"/><rect y="16" width="14" height="14" fill="#3a9ed8"/><rect x="16" y="16" width="14" height="14" fill="#f9b700"/></svg>