<svg xmlns="http://www.w3.org/2000/svg" width="132" height="48" viewBox="0 0 132 48"><path d="M125.28,28.72a9.55,9.55,0,0,1-9.55,9.55H7.69V18.06a9.56,9.56,0,0,1,9.55-9.55h108Z" fill="#3d3d3f"/><path d="M7.69,38.9a.63.63,0,0,1-.45-.18h0a.64.64,0,0,1-.19-.45h0V18.06A10.19,10.19,0,0,1,17.24,7.88h108a.63.63,0,0,1,.45.18h0a.64.64,0,0,1,.19.45h0V28.72A10.19,10.19,0,0,1,115.73,38.9H7.69Zm.64-20.84V37.63h107.4a8.92,8.92,0,0,0,8.91-8.91h0V9.15H17.24a8.92,8.92,0,0,0-8.91,8.91Z" fill="#c5c6c8"/><path d="M26.08,19.6a4.26,4.26,0,0,0-3.44-1.67,5.47,5.47,0,0,0-5.24,5.71c0,3.19,2.16,5.71,5.24,5.71a4.85,4.85,0,0,0,4-1.92l1.23,1a6.11,6.11,0,0,1-5.21,2.4,6.94,6.94,0,0,1-7-7.22,7,7,0,0,1,7-7.22,6,6,0,0,1,4.86,2.15Z" fill="#fff"/><path d="M29.32,23.64a7,7,0,0,1,7.18-7.22,7,7,0,0,1,7.19,7.22,7,7,0,0,1-7.19,7.22A7,7,0,0,1,29.32,23.64Zm12.62,0a5.44,5.44,0,1,0-10.87,0,5.44,5.44,0,1,0,10.87,0Z" fill="#fff"/><path d="M46.05,16.77h5.28a6.59,6.59,0,0,1,6.74,6.87,6.59,6.59,0,0,1-6.74,6.87H46.05ZM47.68,29h3.11c3.15,0,5.53-1.59,5.53-5.36s-2.38-5.36-5.53-5.36H47.68Z" fill="#fff"/><path d="M60.69,16.77h8.64v1.51h-7v4.31h6.54v1.52H62.32V29h7.36v1.51h-9Z" fill="#fff"/><path d="M81.42,18.28H76.88V30.51H75.25V18.28H70.71V16.77H81.42Z" fill="#0091cd"/><path d="M81.75,16.77h1.81l3.12,11.41h0L90.1,16.77h1.83l3.35,11.41h0l3.19-11.41h1.71l-4,13.74H94.41L91,18.87h0L87.56,30.51H85.77Z" fill="#0091cd"/><path d="M101.24,23.64a7.19,7.19,0,1,1,14.37,0,7.19,7.19,0,1,1-14.37,0Zm12.62,0a5.44,5.44,0,1,0-10.87,0,5.44,5.44,0,1,0,10.87,0Z" fill="#0091cd"/><path d="M117.64,15.51h-1.07a.17.17,0,0,0-.16.17v2.54a.16.16,0,0,0,.16.16.17.17,0,0,0,.17-.16v-1h.81l.81,1.05a.17.17,0,0,0,.31-.08.16.16,0,0,0,0-.11l-.71-.92a.82.82,0,0,0,.76-.82h0a.79.79,0,0,0-.22-.56A1.12,1.12,0,0,0,117.64,15.51Zm.7.87c0,.37-.3.59-.73.59h-.87V15.81h.87c.46,0,.73.21.73.56Z" fill="#666"/><path d="M117.46,14.4A2.58,2.58,0,1,0,120,17,2.59,2.59,0,0,0,117.46,14.4Zm0,4.94A2.36,2.36,0,1,1,119.82,17,2.36,2.36,0,0,1,117.46,19.34Z" fill="#666"/></svg>